<svg width="235" height="221" viewBox="0 0 235 221" fill="none" xmlns="http://www.w3.org/2000/svg">
<g id="Group 39872">
<path id="Vector" d="M164.977 30.7586H161.07C160.958 30.4963 160.77 30.2733 160.531 30.1178C160.292 29.9624 160.012 29.8817 159.727 29.8859C159.443 29.8852 159.164 29.9673 158.926 30.1223C158.687 30.2773 158.499 30.4984 158.385 30.7586H154.491C154.299 30.7586 154.114 30.835 153.978 30.9709C153.842 31.1069 153.766 31.2913 153.766 31.4836C153.766 31.6759 153.842 31.8603 153.978 31.9962C154.114 32.1322 154.299 32.2086 154.491 32.2086H158.264V40.6131C158.264 40.9977 158.417 41.3665 158.688 41.6384C158.96 41.9104 159.329 42.0631 159.714 42.0631C160.098 42.0631 160.467 41.9104 160.739 41.6384C161.011 41.3665 161.164 40.9977 161.164 40.6131V32.222H164.936C165.128 32.2186 165.31 32.1411 165.445 32.0059C165.58 31.8706 165.658 31.6882 165.661 31.497C165.665 31.3092 165.596 31.1273 165.468 30.9895C165.34 30.8518 165.164 30.769 164.977 30.7586Z" fill="#011B32"/>
<path id="Vector_2" d="M218.049 30.7586H214.156C214.042 30.4974 213.855 30.2753 213.616 30.1201C213.377 29.9649 213.098 29.8835 212.813 29.8859C212.529 29.8852 212.25 29.9674 212.012 30.1223C211.773 30.2773 211.585 30.4984 211.471 30.7586H207.577C207.385 30.7586 207.2 30.835 207.064 30.9709C206.928 31.1069 206.852 31.2913 206.852 31.4836C206.852 31.6759 206.928 31.8603 207.064 31.9962C207.2 32.1322 207.385 32.2086 207.577 32.2086H211.35V40.6132C211.35 40.8036 211.387 40.9921 211.46 41.1681C211.533 41.344 211.64 41.5038 211.774 41.6385C211.909 41.7731 212.069 41.8799 212.245 41.9528C212.421 42.0257 212.609 42.0631 212.8 42.0631C212.99 42.0631 213.179 42.0257 213.355 41.9528C213.531 41.8799 213.69 41.7731 213.825 41.6385C213.96 41.5038 214.066 41.344 214.139 41.1681C214.212 40.9921 214.25 40.8036 214.25 40.6132V32.222H218.009C218.201 32.222 218.386 32.1456 218.522 32.0097C218.658 31.8737 218.734 31.6893 218.734 31.497C218.738 31.3092 218.668 31.1273 218.541 30.9895C218.413 30.8518 218.237 30.769 218.049 30.7586Z" fill="#011B32"/>
<path id="Vector_3" d="M193.923 37.1358H175.65C175.111 37.1359 174.594 36.9227 174.212 36.5429C173.83 36.1631 173.613 35.6474 173.609 35.1085C173.613 34.5696 173.83 34.054 174.212 33.6742C174.594 33.2944 175.111 33.0812 175.65 33.0812H193.923C194.459 33.0848 194.973 33.2995 195.352 33.6789C195.732 34.0583 195.946 34.5719 195.95 35.1085C195.946 35.6451 195.732 36.1587 195.352 36.5382C194.973 36.9176 194.459 37.1323 193.923 37.1358Z" fill="#011B32"/>
<path id="Vector_4" d="M227.796 35.9813H141.764C140.977 35.8865 140.18 35.9595 139.424 36.1955C138.669 36.4315 137.971 36.8252 137.379 37.3505C136.787 37.8758 136.312 38.5207 135.987 39.2428C135.663 39.965 135.495 40.7478 135.495 41.5396C135.495 42.3313 135.663 43.1142 135.987 43.8363C136.312 44.5584 136.787 45.2034 137.379 45.7286C137.971 46.2539 138.669 46.6476 139.424 46.8836C140.18 47.1196 140.977 47.1926 141.764 47.0978H142.596C142.028 48.3936 141.732 49.7916 141.723 51.2062V60.1477C141.723 66.4847 147.523 71.6806 154.612 71.6806H214.881C221.97 71.6806 227.756 66.4847 227.756 60.1477V51.2062C227.752 49.7925 227.46 48.3944 226.897 47.0978H227.756C228.542 47.1926 229.339 47.1196 230.095 46.8836C230.851 46.6476 231.548 46.2539 232.141 45.7286C232.733 45.2034 233.207 44.5584 233.532 43.8363C233.857 43.1142 234.025 42.3313 234.025 41.5396C234.025 40.7478 233.857 39.965 233.532 39.2428C233.207 38.5207 232.733 37.8758 232.141 37.3505C231.548 36.8252 230.851 36.4315 230.095 36.1955C229.339 35.9595 228.542 35.8865 227.756 35.9813H227.796Z" fill="#0D6EFD"/>
<path id="Vector_5" d="M184.78 111.434C182.964 111.427 181.224 110.702 179.941 109.416C178.658 108.131 177.936 106.39 177.933 104.574V73.05C177.936 71.2338 178.658 69.4929 179.941 68.2074C181.224 66.922 182.964 66.1964 184.78 66.1893C186.597 66.1964 188.338 66.9215 189.623 68.2066C190.908 69.4916 191.633 71.2326 191.64 73.05V104.56C191.637 106.38 190.913 108.124 189.628 109.412C188.342 110.7 186.599 111.427 184.78 111.434Z" fill="#0D6EFD"/>
<path id="Vector_6" d="M193.923 75.7217H175.65C175.11 75.7181 174.593 75.502 174.211 75.1201C173.829 74.7381 173.613 74.2211 173.609 73.6809C173.613 73.142 173.83 72.6264 174.212 72.2466C174.594 71.8668 175.111 71.6536 175.65 71.6536H193.923C194.459 71.6571 194.973 71.8719 195.352 72.2513C195.732 72.6307 195.946 73.1444 195.95 73.6809C195.95 74.2199 195.737 74.7369 195.357 75.1192C194.977 75.5016 194.462 75.7181 193.923 75.7217Z" fill="#011B32"/>
<path id="Vector_7" d="M187.21 14.0837C187.415 13.8285 187.677 13.6259 187.976 13.4928C188.275 13.3597 188.602 13.2999 188.928 13.3184C189.56 13.2804 190.192 13.3918 190.773 13.6438C191.354 13.8957 191.867 14.281 192.271 14.7684C193.614 16.4467 193.614 19.3198 193.413 21.3471H196.259C196.474 19.011 196.38 15.4666 194.527 13.0365C193.879 12.2103 193.048 11.5452 192.1 11.0933C191.152 10.6415 190.113 10.4151 189.063 10.4319C188.317 10.3969 187.573 10.5337 186.889 10.8317C186.205 11.1296 185.598 11.5808 185.115 12.1504C180.578 17.3193 183.115 33.4572 183.424 35.2831L186.23 34.8132C185.411 30.2887 184.109 17.6147 187.21 14.0837Z" fill="#011B32"/>
<g id="Group" opacity="0.57">
<path id="Vector_8" d="M226.937 47.8094H142.596C142.495 47.8233 142.392 47.8155 142.295 47.7865C142.198 47.7574 142.107 47.7078 142.031 47.641C141.954 47.5742 141.893 47.4918 141.851 47.3993C141.808 47.3067 141.787 47.2062 141.787 47.1045C141.787 47.0028 141.808 46.9023 141.851 46.8098C141.893 46.7172 141.954 46.6348 142.031 46.568C142.107 46.5012 142.198 46.4516 142.295 46.4226C142.392 46.3935 142.495 46.3857 142.596 46.3997H226.896C226.997 46.3857 227.1 46.3935 227.197 46.4226C227.295 46.4516 227.385 46.5012 227.461 46.568C227.538 46.6348 227.6 46.7172 227.642 46.8098C227.684 46.9023 227.706 47.0028 227.706 47.1045C227.706 47.2062 227.684 47.3067 227.642 47.3993C227.6 47.4918 227.538 47.5742 227.461 47.641C227.385 47.7078 227.295 47.7574 227.197 47.7865C227.1 47.8155 226.997 47.8233 226.896 47.8094H226.937Z" fill="#011B32"/>
</g>
<path id="Vector_9" d="M170.495 34.1956C166.83 34.4775 172.025 41.6603 175.288 43.3252C177.423 44.4126 179.987 44.6677 181.84 46.1446C184.767 48.5075 184.753 52.8575 184.726 56.6168C184.622 58.0382 184.838 59.4649 185.357 60.7922C185.621 61.4537 186.077 62.0216 186.665 62.4234C187.253 62.8251 187.948 63.0424 188.66 63.0477C190.929 62.8597 191.923 60.1477 192.433 57.9325C192.943 55.7172 194.151 53.0186 196.46 53.0858C198.77 53.1529 199.777 55.8783 200.153 58.107C201.911 68.418 201.683 78.9707 203.173 89.3221C203.415 91.0003 203.872 92.9068 205.362 93.6989C209.39 90.7318 210.732 85.348 211.242 80.3805C211.752 75.4129 211.887 70.1365 214.465 65.8537C217.15 68.8879 217.15 73.3856 217.15 77.4536C217.087 85.5897 217.342 93.7212 217.915 101.848C217.916 104.669 218.564 107.453 219.808 109.984C219.869 110.188 219.985 110.371 220.144 110.512C220.303 110.653 220.497 110.747 220.707 110.783C220.916 110.819 221.131 110.796 221.328 110.717C221.525 110.638 221.696 110.505 221.822 110.333C226.427 106.467 226.816 99.5928 226.857 93.6317C226.973 75.6053 227.089 57.5789 227.206 39.5525C227.206 39.5525 234.254 29.2683 170.495 34.1956Z" fill="#82B4FF"/>
<path id="Vector_10" d="M204.932 96.317C204.932 96.317 201.455 103.567 205.214 103.849C208.973 104.131 204.932 96.317 204.932 96.317Z" fill="#82B4FF"/>
<path id="Vector_11" d="M195.064 55.4084C195.064 55.4084 191.587 62.6584 195.359 62.9537C199.132 63.2491 195.064 55.4084 195.064 55.4084Z" fill="#82B4FF"/>
<path id="Vector_12" d="M207.537 107.622C207.537 107.622 204.059 114.871 207.832 115.167C211.605 115.462 207.537 107.622 207.537 107.622Z" fill="#82B4FF"/>
<path id="Vector_13" d="M209.725 94.8535C209.725 94.8535 207.845 98.7739 209.886 98.8813C211.927 98.9887 209.725 94.8535 209.725 94.8535Z" fill="#82B4FF"/>
<path id="Vector_14" d="M219.244 113.421C219.244 113.421 217.364 117.328 219.405 117.449C221.446 117.57 219.244 113.421 219.244 113.421Z" fill="#82B4FF"/>
<path id="Vector_15" d="M176.012 105.93C176.012 105.93 169.729 104.413 169.944 106.373C170.159 108.333 173.193 108.105 176.227 108.105C176.227 108.105 177.744 106.373 176.012 105.93Z" fill="#FFC7A6"/>
<path id="Vector_16" d="M176.228 108.749C176.228 108.749 169.944 107.232 170.159 109.192C170.374 111.152 173.408 110.924 176.456 110.924C176.456 110.924 177.973 109.192 176.228 108.749Z" fill="#FFC7A6"/>
<path id="Vector_17" d="M176.456 111.784C176.456 111.784 170.159 110.266 170.374 112.227C170.589 114.187 173.637 113.959 176.671 113.959C176.671 113.959 178.188 112.227 176.456 111.784Z" fill="#FFC7A6"/>
<path id="Vector_18" d="M175.368 114.818C175.368 114.818 169.072 113.301 169.3 115.261C169.528 117.221 172.549 116.993 175.583 116.993C175.583 116.993 177.1 115.261 175.368 114.818Z" fill="#FFC7A6"/>
<path id="Vector_19" d="M111.529 72.4995C111.529 72.4995 94.7061 84.4082 118.564 121.504C118.564 121.504 127.653 129.64 134.916 116.858C134.916 116.872 118.255 58.9126 111.529 72.4995Z" fill="#FFC7A6"/>
<path id="Vector_20" d="M104.493 101.298L130.002 95.5785C130.002 95.5785 125.129 72.3518 110.253 69.9486C110.28 69.9486 94.3567 76.1514 104.493 101.298Z" fill="white"/>
<path id="Vector_21" d="M61.5172 63.5579C61.5172 63.5579 93.3096 49.5414 119.893 75.6412C119.893 75.6412 98.2638 118.027 98.7068 122.081C99.2363 125.581 99.9897 129.043 100.962 132.446L54.5627 140.501C52.9288 133.514 53.0812 126.228 55.0057 119.315C58.1608 107.232 63.7728 66.2565 61.5172 63.5579Z" fill="white"/>
<path id="Vector_22" d="M52.334 145.536C52.334 145.536 52.965 170.897 84.1532 207.872C84.1532 207.872 96.8809 213.39 101.473 201.643C101.473 201.643 92.7592 159.244 84.4754 143.589C76.1917 127.935 55.6099 133.533 52.334 145.536Z" fill="#1275A0"/>
<path id="Vector_23" d="M64.4574 61.9468C64.4574 61.9468 43.8353 61.5977 41.1099 105.608C41.1099 105.608 43.6205 117.557 57.0329 111.555C57.0329 111.555 77.9235 54.9654 64.4574 61.9468Z" fill="#FFC7A6"/>
<path id="Vector_24" d="M117.517 143.522C117.517 143.522 108.186 156.841 113.261 209.779L121.544 211.725C121.544 211.725 139.723 160.882 134.97 147.63C130.217 134.379 123.8 134.916 117.517 143.522Z" fill="#1B90D0"/>
<path id="Vector_25" d="M94.0749 193.802C94.0749 193.802 79.8838 185.854 27.7245 196.259L26.6235 204.704C26.6235 204.704 79.0649 217.646 91.7657 211.605C104.467 205.563 103.272 199.119 94.0749 193.802Z" fill="#1275A0"/>
<path id="Vector_26" d="M56.08 157.633C56.08 157.633 79.2396 168.011 126.042 155.82C126.042 155.82 136.514 146.731 127.908 137.521C127.908 137.521 85.8853 127.076 68.2035 127.801C50.5217 128.526 46.6685 149.497 56.08 157.633Z" fill="#1B90D0"/>
<path id="Vector_27" d="M125.558 203.871L126.485 201.387C126.485 201.387 130.512 200.461 130.069 202.73C129.626 204.999 129.224 208.772 129.224 208.772C129.224 208.772 148.892 214.142 148.919 218.17C148.946 222.197 112.804 219.338 112.804 219.338C112.804 219.338 109.595 208.892 112.723 208.866C115.851 208.839 124.243 208.194 125.558 203.871Z" fill="#011B32"/>
<path id="Vector_28" d="M141.253 219.929C131.656 220.078 122.057 219.733 112.495 218.895L112.616 217.472C112.911 217.472 142.327 220.009 148.557 217.472L149.094 218.814C146.55 219.571 143.908 219.947 141.253 219.929Z" fill="white"/>
<path id="Vector_29" d="M132.043 214.155C131.895 214.159 131.75 214.117 131.627 214.035C131.548 213.984 131.481 213.919 131.428 213.842C131.375 213.765 131.338 213.678 131.319 213.587C131.301 213.496 131.3 213.402 131.319 213.31C131.337 213.219 131.373 213.132 131.426 213.055L133.359 210.128C133.463 209.972 133.624 209.863 133.808 209.826C133.991 209.788 134.182 209.824 134.339 209.926C134.418 209.977 134.485 210.042 134.538 210.119C134.591 210.196 134.628 210.282 134.647 210.374C134.665 210.465 134.666 210.559 134.647 210.651C134.629 210.742 134.593 210.829 134.54 210.906L132.607 213.833C132.545 213.928 132.462 214.006 132.364 214.062C132.266 214.118 132.156 214.15 132.043 214.155Z" fill="white"/>
<path id="Vector_30" d="M136.232 215.256C136.112 215.261 135.993 215.238 135.883 215.189C135.798 215.149 135.722 215.092 135.66 215.022C135.597 214.952 135.549 214.87 135.519 214.781C135.489 214.692 135.477 214.598 135.484 214.504C135.492 214.411 135.518 214.319 135.561 214.236L136.742 211.86C136.828 211.693 136.975 211.567 137.153 211.508C137.33 211.449 137.524 211.463 137.691 211.546C137.859 211.629 137.987 211.775 138.048 211.951C138.11 212.128 138.099 212.322 138.018 212.491L136.823 214.813C136.777 214.936 136.697 215.043 136.592 215.121C136.488 215.2 136.363 215.247 136.232 215.256Z" fill="white"/>
<path id="Vector_31" d="M27.1336 209.617L28.3419 212.007C28.3419 212.007 26.234 215.538 24.9183 213.686C23.6026 211.833 21.1456 208.892 21.1456 208.892C21.1456 208.892 3.69207 219.324 0.711532 216.572C-2.269 213.82 24.878 189.72 24.878 189.72C24.878 189.72 34.6252 194.648 32.4904 196.917C30.3557 199.186 24.9183 205.684 27.1336 209.617Z" fill="#011B32"/>
<path id="Vector_32" d="M4.63189 209.859C11.1693 202.839 18.0612 196.158 25.2808 189.841L26.2206 190.902C25.9924 191.103 3.82636 210.584 1.34258 216.841L0 216.317C1.22647 213.954 2.78638 211.779 4.63189 209.859Z" fill="white"/>
<path id="Vector_33" d="M15.1978 207.187C15.3004 207.079 15.4302 207 15.5737 206.959C15.7587 206.919 15.9522 206.952 16.1127 207.053C16.2733 207.153 16.3882 207.312 16.433 207.496L17.1983 210.92C17.22 211.011 17.2232 211.105 17.2078 211.197C17.1924 211.289 17.1587 211.377 17.1086 211.456C17.0585 211.535 16.9931 211.603 16.9163 211.656C16.8394 211.709 16.7527 211.747 16.6612 211.766C16.4779 211.806 16.2862 211.772 16.1278 211.671C15.9694 211.571 15.8571 211.412 15.8154 211.229L15.0501 207.805C15.0252 207.698 15.0256 207.586 15.0513 207.479C15.0769 207.372 15.127 207.272 15.1978 207.187Z" fill="white"/>
<path id="Vector_34" d="M11.5196 209.443C11.5967 209.358 11.6936 209.294 11.8016 209.255C11.8897 209.223 11.9833 209.209 12.077 209.213C12.1706 209.217 12.2625 209.24 12.3474 209.28C12.4322 209.32 12.5083 209.376 12.5713 209.446C12.6344 209.515 12.683 209.596 12.7145 209.685L13.6141 212.182C13.6696 212.358 13.6544 212.549 13.5716 212.715C13.4889 212.88 13.345 213.006 13.1705 213.067C12.996 213.129 12.8046 213.119 12.6368 213.042C12.469 212.964 12.338 212.824 12.2715 212.652L11.3854 210.155C11.339 210.035 11.327 209.905 11.3507 209.78C11.3745 209.654 11.433 209.537 11.5196 209.443Z" fill="white"/>
<path id="Vector_35" d="M87.9125 37.7266L83.8848 62.6718C83.8848 62.6718 92.2893 70.3648 102.13 66.3773L105.984 47.5812C105.984 47.5812 89.913 34.1553 87.9125 37.7266Z" fill="#FFC7A6"/>
<path id="Vector_36" opacity="0.26" d="M96.102 40.2775C94.0933 49.1554 93.3207 58.2682 93.8062 67.3574C96.6276 67.8227 99.5227 67.4974 102.17 66.4176L106.024 47.6215C102.85 44.9983 99.5378 42.5468 96.102 40.2775Z" fill="#C9614A"/>
<path id="Vector_37" d="M130.956 33.0544C131.914 30.4315 132.332 27.6414 132.182 24.8527C132.032 22.0641 131.319 19.3347 130.085 16.8295C128.85 14.3243 127.121 12.0953 125.002 10.2771C122.882 8.45888 120.416 7.08925 117.752 6.25094C115.088 5.41263 112.282 5.12303 109.503 5.39964C106.724 5.67625 104.03 6.51333 101.583 7.8603C99.137 9.20727 96.9891 11.0362 95.2693 13.2365C93.5496 15.4369 92.2937 17.963 91.5777 20.6623C91.5777 20.6623 79.3736 51.0853 99.8077 57.7982C99.8077 57.7982 117.986 66.8875 128.901 37.6595C129.769 36.2128 130.459 34.6666 130.956 33.0544Z" fill="#FFC7A6"/>
<path id="Vector_38" d="M45.2852 77.5073L66.941 92.1952C66.941 92.1952 80.528 72.7412 72.0831 60.2551C72.0831 60.2551 56.6703 52.9112 45.2852 77.5073Z" fill="white"/>
<path id="Vector_39" d="M113.287 159.338C113.164 159.337 113.044 159.294 112.949 159.216C112.854 159.138 112.788 159.029 112.763 158.908C112.748 158.841 112.746 158.772 112.758 158.704C112.77 158.636 112.795 158.571 112.833 158.513C112.87 158.456 112.919 158.406 112.977 158.368C113.034 158.33 113.098 158.303 113.166 158.291C113.274 158.291 115.408 157.727 116.066 154.142C116.106 154.019 116.19 153.914 116.301 153.847C116.412 153.781 116.544 153.757 116.672 153.78C116.799 153.803 116.914 153.871 116.996 153.972C117.077 154.073 117.119 154.2 117.113 154.33C116.321 158.68 113.515 159.298 113.394 159.324L113.287 159.338Z" fill="#011B32"/>
<path id="Vector_40" d="M77.8832 194.527C77.8002 194.525 77.7186 194.505 77.6443 194.468C77.5701 194.43 77.5049 194.377 77.4536 194.312C76.2855 192.755 72.4994 191.936 71.1434 191.748C71.0747 191.738 71.0085 191.715 70.9487 191.68C70.8889 191.644 70.8365 191.598 70.7948 191.542C70.753 191.487 70.7226 191.424 70.7053 191.356C70.6879 191.289 70.684 191.219 70.6937 191.15C70.7034 191.082 70.7265 191.015 70.7618 190.956C70.797 190.896 70.8437 190.843 70.8992 190.802C70.9547 190.76 71.0179 190.73 71.0851 190.712C71.1523 190.695 71.2224 190.691 71.2911 190.701C71.5059 190.701 76.6614 191.452 78.2994 193.668C78.3863 193.78 78.4252 193.922 78.4076 194.063C78.39 194.204 78.3173 194.332 78.2054 194.419C78.1112 194.487 77.9989 194.524 77.8832 194.527Z" fill="#011B32"/>
<g id="Group_2" opacity="0.56">
<path id="Vector_41" d="M68.1227 90.517C68.0125 90.5189 67.9044 90.486 67.8139 90.423L46.5206 74.9967C46.4066 74.9148 46.3299 74.791 46.3072 74.6525C46.2846 74.514 46.3179 74.3722 46.3998 74.2583C46.4817 74.1443 46.6054 74.0676 46.7439 74.0449C46.8824 74.0223 47.0242 74.0555 47.1382 74.1374L68.4316 89.5503C68.489 89.5916 68.5377 89.6439 68.5749 89.7041C68.6121 89.7643 68.637 89.8312 68.6483 89.9011C68.6595 89.971 68.6568 90.0423 68.6403 90.1112C68.6239 90.18 68.594 90.2449 68.5524 90.3021C68.501 90.3674 68.4358 90.4204 68.3616 90.4575C68.2873 90.4947 68.2058 90.515 68.1227 90.517Z" fill="#011B32"/>
</g>
<g id="Group_3" opacity="0.56">
<path id="Vector_42" d="M108.239 98.0086C108.119 98.0106 108.001 97.9699 107.908 97.8938C107.815 97.8176 107.751 97.7108 107.729 97.5924C107.713 97.5244 107.711 97.4541 107.723 97.3853C107.735 97.3166 107.76 97.2509 107.798 97.1921C107.835 97.1334 107.884 97.0827 107.941 97.043C107.999 97.0034 108.063 96.9756 108.132 96.9613L129.17 92.2891C129.305 92.2688 129.442 92.3006 129.555 92.378C129.667 92.4554 129.746 92.5726 129.775 92.7058C129.804 92.8391 129.781 92.9784 129.711 93.0955C129.641 93.2126 129.529 93.2987 129.398 93.3364L108.36 98.0086H108.239Z" fill="#011B32"/>
</g>
<g id="Group_4" opacity="0.56">
<path id="Vector_43" d="M96.1829 70.0695C95.4963 70.0723 94.8103 70.032 94.1287 69.9486C80.5687 68.445 80.8103 60.3089 80.8103 60.2283C80.812 60.1584 80.8277 60.0895 80.8565 60.0257C80.8853 59.9619 80.9265 59.9046 80.9778 59.857C81.0292 59.8095 81.0895 59.7727 81.1553 59.7488C81.221 59.725 81.2909 59.7146 81.3608 59.7182C81.4308 59.7199 81.4996 59.7356 81.5634 59.7643C81.6272 59.7931 81.6845 59.8343 81.7321 59.8857C81.7797 59.937 81.8165 59.9973 81.8403 60.0631C81.8642 60.1288 81.8746 60.1988 81.871 60.2686C81.871 60.564 81.7367 67.5051 94.2496 68.9014C94.3436 68.9014 102.668 69.8815 104.332 65.2093C104.355 65.1423 104.391 65.0804 104.438 65.0276C104.485 64.9748 104.542 64.932 104.606 64.9019C104.67 64.8718 104.739 64.855 104.81 64.8524C104.881 64.8499 104.951 64.8617 105.017 64.8871C105.15 64.9356 105.259 65.0348 105.319 65.1631C105.38 65.2913 105.387 65.4383 105.339 65.5718C103.943 69.4787 99.0292 70.0695 96.1829 70.0695Z" fill="#011B32"/>
</g>
<g id="Group_5" opacity="0.56">
<path id="Vector_44" d="M88.8926 85.3883H88.6107C88.5407 85.3849 88.4721 85.3675 88.4089 85.3371C88.3458 85.3067 88.2893 85.264 88.243 85.2114C88.1967 85.1588 88.1614 85.0975 88.1392 85.031C88.117 84.9645 88.1084 84.8943 88.1139 84.8244C88.1173 84.7544 88.1347 84.6858 88.165 84.6226C88.1954 84.5595 88.2382 84.5031 88.2908 84.4568C88.3434 84.4104 88.4047 84.3751 88.4712 84.353C88.5377 84.3308 88.6079 84.3222 88.6778 84.3276C90.2839 84.3319 91.8633 83.9168 93.2597 83.1232C94.6561 82.3297 95.821 81.1852 96.6393 79.8031C96.6762 79.7429 96.7248 79.6908 96.7824 79.6499C96.8399 79.609 96.9052 79.5802 96.9741 79.5651C97.0431 79.5501 97.1144 79.5491 97.1838 79.5624C97.2532 79.5756 97.3191 79.6027 97.3777 79.642C97.4965 79.7191 97.58 79.8398 97.6102 79.9781C97.6403 80.1164 97.6147 80.261 97.5388 80.3804C96.6345 81.8745 95.3683 83.1165 93.8571 83.9918C92.3459 84.867 90.6385 85.3473 88.8926 85.3883Z" fill="#011B32"/>
</g>
<path id="Vector_45" d="M51.2998 144.69C51.2998 144.69 52.3739 124.874 53.7164 124.874C55.059 124.874 61.3826 128.096 63.1817 115.664C64.9807 103.231 71.8682 59.557 71.8682 59.557C71.8682 59.557 77.1177 58.6306 78.4737 59.557C79.8297 60.4834 73.1034 85.7374 76.7015 88.4897C80.2996 91.242 101.029 93.0947 103.285 90.7989C105.54 88.5031 110.373 66.8472 110.373 66.8472L115.945 69.6532C115.945 69.6532 99.1092 125.787 101.808 134.097V142.851L51.2998 144.69Z" fill="#1B90D0"/>
<path id="Vector_46" d="M89.4431 117.409L78.9575 111.582L79.7362 95.6725L101.432 96.4512L98.7472 111.22L89.4431 117.409ZM80.045 110.978L89.3759 116.16L97.7402 110.602L100.157 97.4715L80.7297 96.7734L80.045 110.978Z" fill="#011B32"/>
<path id="Vector_47" d="M91.9936 128.539L103.003 127.8L102.64 132.58L86.5293 132.204C86.5293 132.204 87.9524 127.438 91.9936 128.539Z" fill="#011B32"/>
<path id="Vector_48" d="M216.519 123.289C216.519 123.289 214.639 127.196 216.68 127.317C218.72 127.438 216.519 123.289 216.519 123.289Z" fill="#82B4FF"/>
<path id="Vector_49" d="M52.4684 123.759L48.293 141.75C48.293 141.75 73.6946 148.369 84.5427 147.268L88.369 128.539L52.4684 123.759Z" fill="#011B32"/>
<path id="Vector_50" d="M63.974 153.363C63.7504 154.722 63.9689 156.117 64.5973 157.342C65.2257 158.568 66.2308 159.559 67.4648 160.17L68.6596 152.987C68.6955 152.759 68.7762 152.541 68.8971 152.344C69.018 152.148 69.1767 151.977 69.364 151.842C69.5513 151.707 69.7635 151.611 69.9883 151.559C70.213 151.506 70.4459 151.499 70.6735 151.537H70.8883C71.3483 151.616 71.7585 151.874 72.0299 152.253C72.3014 152.633 72.4122 153.104 72.3383 153.565L71.1434 160.761C72.4542 160.588 73.6798 160.016 74.6535 159.121C75.6272 158.227 76.3015 157.054 76.5847 155.763C76.868 154.471 76.7463 153.124 76.2363 151.904C75.7263 150.685 74.8527 149.652 73.7346 148.946L77.7624 124.619C77.8361 124.163 77.7263 123.697 77.4571 123.322C77.1879 122.947 76.7811 122.694 76.3258 122.618L74.849 122.376C74.3933 122.303 73.9271 122.413 73.5522 122.682C73.1773 122.951 72.9242 123.358 72.8485 123.813L68.8207 148.141C67.5857 148.432 66.4652 149.084 65.602 150.014C64.7389 150.944 64.1721 152.11 63.974 153.363Z" fill="#FDCB6A"/>
<path id="Vector_51" d="M56.9658 155.914L56.9793 155.928L56.9121 156.29L56.9927 156.304L57.0598 157.955L57.9593 158.103L58.4963 156.532L61.8125 135.037L60.2283 134.795L56.9793 155.914H56.9658Z" fill="white"/>
<path id="Vector_52" d="M57.5701 137.749C57.5392 137.959 57.5924 138.173 57.7181 138.344C57.8438 138.514 58.0318 138.629 58.2414 138.662L59.396 138.837C59.6845 139.03 60.0119 139.158 60.3552 139.211C60.6986 139.265 61.0494 139.242 61.383 139.145L62.5376 139.32C62.6418 139.337 62.7484 139.333 62.851 139.308C62.9537 139.284 63.0504 139.239 63.1354 139.176C63.2205 139.114 63.2922 139.035 63.3463 138.944C63.4004 138.854 63.4359 138.753 63.4506 138.649C63.4791 138.467 63.4421 138.28 63.3462 138.123C63.2504 137.966 63.1018 137.847 62.927 137.789C63.0077 137.6 63.0662 137.402 63.1015 137.199L64.9409 125.209C65.037 124.579 64.8788 123.936 64.5012 123.423C64.1235 122.909 63.5573 122.567 62.927 122.47C62.2968 122.374 61.6541 122.532 61.1405 122.91C60.6268 123.288 60.2843 123.854 60.1881 124.484L58.3488 136.474C58.3287 136.674 58.3287 136.877 58.3488 137.078C58.1611 137.081 57.9806 137.15 57.8384 137.273C57.6963 137.396 57.6014 137.564 57.5701 137.749Z" fill="#E4587F"/>
<path id="Vector_53" d="M66.3637 133L56.313 131.684L55.9434 134.506L65.9941 135.823L66.3637 133Z" fill="#011B32"/>
<path id="Vector_54" d="M78.9907 135.224L68.9399 133.908L68.5704 136.73L78.6211 138.046L78.9907 135.224Z" fill="#011B32"/>
<path id="Vector_55" d="M43.3117 111.824C43.3117 111.824 50.0246 124.887 91.1748 131.963L94.4238 124.364C94.4238 124.364 60.3491 100.694 54.7371 99.5123C49.1251 98.3308 35.8066 100.694 43.3117 111.824Z" fill="#FFC7A6"/>
<path id="Vector_56" d="M95.1758 123.679C95.1758 123.679 98.8948 120.175 101.808 121.074C104.722 121.974 107.675 122.658 105.943 123.92C105.475 124.282 104.915 124.504 104.326 124.564C103.738 124.623 103.145 124.516 102.614 124.256C102.614 124.256 107.514 125.035 107.031 126.713C106.548 128.391 105.688 136.769 102.533 137.145C99.3781 137.521 90.4499 133.6 90.799 130.633C91.1481 127.666 92.5712 122.981 95.1758 123.679Z" fill="#FFC7A6"/>
<g id="Group_6" opacity="0.64">
<path id="Vector_57" d="M52.2264 104.265C52.114 104.263 52.0036 104.235 51.9036 104.184C51.8035 104.133 51.7165 104.06 51.6491 103.97C51.5944 103.894 51.5552 103.808 51.5337 103.717C51.5122 103.626 51.5089 103.532 51.5238 103.439C51.5388 103.347 51.5718 103.259 51.6209 103.179C51.67 103.1 51.7344 103.031 51.8102 102.976C51.9981 102.842 56.469 99.5794 59.6643 101.352C59.8299 101.442 59.9526 101.595 60.0055 101.777C60.0584 101.958 60.037 102.153 59.9462 102.318C59.8554 102.484 59.7026 102.607 59.5213 102.659C59.34 102.712 59.1452 102.691 58.9796 102.6C56.9791 101.486 53.7301 103.325 52.6426 104.117C52.524 104.211 52.3776 104.263 52.2264 104.265Z" fill="#E4587F"/>
</g>
<path id="Vector_58" d="M167.796 108.534C167.796 108.534 166.923 104.413 169.313 103.768C171.703 103.124 178.845 100.694 178.845 100.694L182.752 112.401C182.752 112.401 172.992 116.952 170.669 117.382C168.346 117.812 165.42 110.481 167.796 108.534Z" fill="#FFC7A6"/>
<path id="Vector_59" d="M124.592 125.491C124.592 125.491 136.675 132.312 170.146 114.495L168.105 107.863C168.105 107.863 130.674 106.708 125.961 108.924C121.249 111.139 113.059 120.712 124.592 125.491Z" fill="#FFC7A6"/>
<path id="Vector_60" d="M193.278 96.9211C194.273 94.95 194.607 92.7116 194.232 90.536C193.858 88.3604 192.794 86.3628 191.197 84.8378L185.935 95.3234C185.595 95.9884 185.007 96.4926 184.298 96.7264C183.589 96.9602 182.817 96.9047 182.148 96.572L181.84 96.4109C181.175 96.0717 180.67 95.4836 180.437 94.7747C180.203 94.0657 180.258 93.2931 180.591 92.6248L185.867 82.2064C183.782 81.836 181.633 82.1186 179.714 83.0156C177.795 83.9127 176.2 85.3804 175.146 87.2182C174.093 89.056 173.633 91.1742 173.829 93.2834C174.025 95.3926 174.867 97.3898 176.241 99.0021L158.412 134.258C158.245 134.584 158.144 134.94 158.116 135.305C158.087 135.67 158.13 136.037 158.244 136.385C158.357 136.733 158.539 137.055 158.777 137.333C159.015 137.611 159.306 137.839 159.633 138.004L161.781 139.092C162.44 139.425 163.205 139.483 163.907 139.254C164.608 139.025 165.191 138.527 165.527 137.87L183.37 102.614C185.399 102.749 187.423 102.281 189.186 101.268C190.95 100.255 192.374 98.7423 193.278 96.9211Z" fill="#011B32"/>
<path id="Vector_61" d="M167.796 108.534C167.796 108.534 166.279 101.593 169.528 100.949C172.777 100.304 179.718 101.164 179.074 103.11C178.429 105.057 172.992 104.198 172.992 104.198C172.992 104.198 169.313 108.32 167.796 108.534Z" fill="#FFC7A6"/>
<g id="Group_7" opacity="0.64">
<path id="Vector_62" d="M128.351 115.677H128.257C128.07 115.654 127.9 115.557 127.785 115.408C127.669 115.26 127.617 115.072 127.64 114.885C127.72 114.321 128.432 109.34 130.325 107.997C130.536 107.84 130.777 107.729 131.034 107.671C131.291 107.614 131.557 107.61 131.815 107.662C131.953 107.733 132.065 107.848 132.131 107.989C132.198 108.129 132.217 108.288 132.185 108.44C132.153 108.593 132.072 108.731 131.954 108.832C131.836 108.934 131.688 108.995 131.533 109.004C131.464 108.995 131.394 108.999 131.327 109.018C131.26 109.036 131.198 109.068 131.144 109.112C130.096 109.864 129.318 113.139 129.063 115.033C129.043 115.208 128.96 115.371 128.829 115.489C128.698 115.608 128.528 115.675 128.351 115.677Z" fill="#E4587F"/>
</g>
<path id="Vector_63" d="M112.093 35.2696C111.69 36.1692 111.77 37.0821 112.281 37.3104C112.791 37.5386 113.529 37.0016 113.932 36.102C114.335 35.2025 114.254 34.2761 113.744 34.0479C113.234 33.8197 112.495 34.3701 112.093 35.2696Z" fill="#011B32"/>
<path id="Vector_64" d="M123.263 40.6669C122.873 41.5798 122.981 42.4928 123.491 42.7076C124.001 42.9224 124.726 42.3586 125.115 41.459C125.505 40.5595 125.411 39.6331 124.901 39.4183C124.39 39.2035 123.652 39.7539 123.263 40.6669Z" fill="#011B32"/>
<path id="Vector_65" d="M116.979 29.2549C116.965 29.1501 116.926 29.0503 116.866 28.9638C116.805 28.8774 116.724 28.8068 116.63 28.7581C115.88 28.2731 115.012 27.9997 114.119 27.9666C113.226 27.9335 112.34 28.142 111.555 28.5702C111.4 28.6741 111.291 28.8354 111.253 29.0188C111.216 29.2023 111.252 29.3933 111.354 29.5502C111.458 29.7055 111.618 29.8146 111.801 29.8546C111.984 29.8946 112.175 29.8625 112.334 29.7651C112.899 29.4763 113.531 29.3452 114.164 29.3854C114.798 29.4255 115.408 29.6355 115.932 29.9933C116.049 30.0582 116.182 30.0888 116.316 30.0816C116.449 30.0744 116.578 30.0297 116.687 29.9526C116.797 29.8755 116.882 29.7692 116.934 29.6458C116.985 29.5223 117.001 29.3869 116.979 29.2549Z" fill="#8D4328"/>
<path id="Vector_66" d="M128.78 35.847C128.848 35.6559 128.848 35.4474 128.78 35.2563C128.609 34.5637 128.202 33.9526 127.628 33.5285C127.055 33.1045 126.351 32.894 125.639 32.9336C125.467 32.9755 125.315 33.0736 125.205 33.2123C125.096 33.3509 125.036 33.5222 125.035 33.6989C125.035 34.0748 125.236 34.3433 125.558 34.303C125.625 34.303 126.995 34.1554 127.747 36.035C127.771 36.1063 127.813 36.1704 127.869 36.2215C127.925 36.2725 127.992 36.309 128.065 36.3277C128.138 36.3463 128.215 36.3465 128.288 36.3282C128.362 36.3099 128.429 36.2737 128.485 36.2229C128.613 36.1235 128.714 35.9945 128.78 35.847Z" fill="#8D4328"/>
<path id="Vector_67" d="M116.899 51.0181L110.267 47.702C110.267 47.702 111.837 56.2945 116.899 51.0181Z" fill="#011B32"/>
<path id="Vector_68" d="M115.301 45.6478C116.476 45.7285 117.655 45.6427 118.805 45.3927C119.034 45.2987 119.074 45.2048 119.074 45.1376C119.141 44.8818 119.19 44.6216 119.222 44.3589C119.289 43.7816 119.342 43.1775 119.383 42.5599C119.49 41.3516 119.584 40.1164 119.772 38.8946C119.853 38.277 119.973 37.6594 120.108 37.0419C120.216 36.4072 120.459 35.803 120.819 35.2697C120.746 36.4993 120.746 37.7322 120.819 38.9618C120.859 40.202 120.832 41.4434 120.739 42.6807C120.672 43.3117 120.604 43.9428 120.484 44.5738C120.406 44.9211 120.303 45.2621 120.175 45.5941C120.077 45.8201 119.924 46.0176 119.729 46.168C119.534 46.3183 119.304 46.4165 119.06 46.4534C118.384 46.5584 117.693 46.5172 117.033 46.3325C116.434 46.1653 115.853 45.9358 115.301 45.6478Z" fill="#E4587F"/>
<path id="Vector_69" d="M96.4915 24.0859C96.4915 24.0859 98.3846 32.1414 96.4915 36.8539C94.5985 41.5664 97.9147 41.1233 100.748 31.6581C103.58 22.1929 110.213 16.5272 115.409 20.2998C120.604 24.0725 136.232 28.8253 139.065 25.0392C141.898 21.2531 136.232 22.6762 136.232 22.6762C136.232 22.6762 145.214 18.8902 142.851 12.7411C140.488 6.59209 136.702 16.9971 136.702 16.9971C136.702 16.9971 143.791 4.22913 139.065 3.7458C134.339 3.26247 134.809 11.8013 132.916 11.318C131.023 10.8346 119.678 -4.28284 97.9147 6.59209L96.948 0L94.5717 8.0555L88.906 6.17589L91.7388 10.4319C91.7388 10.4319 81.3338 24.623 85.5898 40.2238C85.5898 40.2238 83.6967 46.8427 81.8037 47.3261C79.9106 47.8094 85.5898 51.7029 87.0129 48.7357C88.436 45.7686 91.2957 18.4202 96.4915 24.0859Z" fill="#011B32"/>
<path id="Vector_70" d="M95.1623 31.6044C95.0653 31.0882 94.9261 30.5808 94.7461 30.0873C94.5984 29.5906 94.2493 29.2549 94.1419 29.3892C93.5244 29.5771 93.135 30.4901 92.9067 31.4567C92.6748 32.4342 92.5444 33.433 92.5174 34.4373C92.4898 34.931 92.5168 35.4263 92.598 35.9141C92.6651 36.3975 92.9067 36.8271 93.4975 36.5183C93.4164 36.6549 93.2904 36.759 93.141 36.8129C92.9916 36.8668 92.8281 36.867 92.6785 36.8137C92.3867 36.6684 92.1541 36.4264 92.0206 36.1289C91.7686 35.614 91.6053 35.0603 91.5373 34.491C91.3893 33.3805 91.4438 32.2524 91.6984 31.1614C91.8415 30.5857 92.0676 30.0339 92.3697 29.5234C92.5511 29.2334 92.7884 28.9824 93.0678 28.785C93.3656 28.5773 93.713 28.4523 94.0748 28.4225C94.2896 28.4168 94.5015 28.4734 94.6849 28.5853C94.8683 28.6973 95.0155 28.8599 95.1086 29.0535C95.2424 29.3357 95.3199 29.6412 95.3368 29.9531C95.3749 30.5095 95.3159 31.0683 95.1623 31.6044Z" fill="#E4587F"/>
</g>
</svg>
